<svg width="105" height="60" viewBox="0 0 105 60" fill="none" xmlns="http://www.w3.org/2000/svg">
    <path d="M12.3867 3.88123H12.4838V35.5852C9.73235 35.3666 7.07795 34.7984 5.53233 34.0553V9.34778C5.53233 7.29332 4.61517 6.24424 2.87793 5.84826V5.76084L12.3867 3.88123ZM15.1868 35.7138V35.6263C18.2755 34.9269 19.6755 31.8645 19.6755 25.2178C19.6755 19.4452 18.0328 15.5112 15.1868 14.5058V14.4184C16.2981 13.5878 17.5039 13.1944 18.8069 13.1944C23.5868 13.1944 27.2069 17.5245 27.2069 23.7778C27.2069 30.7306 22.5726 35.7138 15.1868 35.7138Z" fill="#153A5B"/>
    <path d="M65.9601 35.6264C67.6488 35.0581 69.0488 33.3534 69.0488 31.6023C69.0488 29.5479 67.7459 28.4962 64.2688 27.2723L62.5316 26.6603C57.9458 25.1304 55.6772 23.2071 55.6772 20.0135C55.6772 18.2213 56.3516 16.6914 57.7516 15.4212C59.1516 14.1536 60.986 13.3667 63.2546 13.1482V13.2356C61.709 13.935 60.406 15.3775 60.406 16.82C60.406 18.6122 61.709 19.6175 65.0404 20.8003L66.8261 21.4123C71.7006 23.0296 73.8747 25.0404 73.8747 28.3651C73.8747 32.258 70.7375 35.3178 65.9575 35.7112V35.6264H65.9601ZM63.2571 35.7138C61.1801 35.5827 58.7684 35.3204 56.017 34.8396V26.4443H56.114C56.9341 28.3239 57.9484 30.1187 59.2513 31.8672C60.5542 33.6156 61.8571 34.8859 63.2571 35.629V35.7138ZM65.9601 13.107C67.8429 13.2382 69.9174 13.5879 72.2831 14.1561V21.1963H72.186C71.6061 19.7538 70.7375 18.2676 69.5802 16.7351C68.4688 15.1615 67.263 13.9813 65.9601 13.1919V13.107Z" fill="#153A5B"/>
    <path d="M92.6164 44.9858H92.5193V13.2818C95.2708 13.5004 97.9252 14.0686 99.4708 14.8117V39.5192C99.4708 41.5737 100.388 42.6228 102.125 43.0187V43.1062L92.6164 44.9858ZM89.8164 13.1507V13.2381C86.7277 13.9375 85.3276 16.9999 85.3276 23.6467C85.3276 29.4192 86.9704 33.3533 89.8164 34.3587V34.4461C88.705 35.2766 87.4992 35.67 86.1963 35.67C81.4163 35.67 77.7962 31.34 77.7962 25.0866C77.7962 18.1364 82.4305 13.1507 89.8164 13.1507Z" fill="#153A5B"/>
    <path d="M38.1081 31.7797C37.4311 30.6432 37.0938 29.3319 37.0938 27.8431C37.0938 25.3515 38.1081 23.7753 40.0395 22.3765V22.2454L34.9708 24.6496C31.8336 26.1795 30.5307 27.4471 30.5307 30.0287C30.5307 33.1759 32.9449 35.6264 36.3708 35.6264C37.8679 35.6264 39.365 34.7521 40.6679 33.5282V33.4408C39.6511 33.4845 38.8311 32.9162 38.1081 31.7797Z" fill="#153A5B"/>
    <path d="M51.6227 33.0474C50.3198 33.0474 49.6427 32.3917 49.6427 31.0366V18.1802C49.6427 15.0741 47.5197 13.107 41.9197 13.0633V13.1507C42.4511 13.8501 42.7398 15.5986 42.7398 18.0053V31.6923C42.7398 34.315 43.8511 35.6289 46.1197 35.6289C48.1942 35.6289 50.8026 34.6236 52.5884 33.0062V32.9188C52.3482 33.0037 52.057 33.0474 51.6227 33.0474Z" fill="#153A5B"/>
    <path d="M35.5968 16.7378C36.7081 15.1641 37.914 13.9839 39.2169 13.1945V13.1071C37.334 13.2382 35.2596 13.5879 32.8939 14.1562V21.1964H32.9909C33.5709 19.7539 34.4395 18.2677 35.5968 16.7378Z" fill="#153A5B"/>
    <path d="M66.4394 55.2193L65.346 54.1188C66.0281 53.2754 66.4292 52.2058 66.4292 51.0255C66.4292 48.246 64.1963 46.0707 61.3478 46.0707C58.4992 46.0707 56.2664 48.246 56.2664 51.0255C56.2664 53.8051 58.4992 55.9804 61.3478 55.9804C62.5076 55.9804 63.5628 55.6204 64.4084 55.0059L65.5274 56.1321L66.4394 55.2193ZM61.3529 54.6716C59.4087 54.6716 57.7635 53.0029 57.7635 51.0281C57.7635 49.0534 59.4062 47.3846 61.3529 47.3846C63.2996 47.3846 64.9423 49.0534 64.9423 51.0281C64.9423 51.7764 64.7047 52.4835 64.3062 53.0697L63.2128 51.9692L62.3033 52.8846L63.4069 53.9954C62.8193 54.4196 62.1091 54.6716 61.3529 54.6716Z" fill="#153A5B"/>
    <path d="M23.2588 55.7772V46.2789H24.6562V54.4659H30.3559V55.7772H23.2588Z" fill="#153A5B"/>
    <path d="M51.6345 55.7772L49.5779 52.648H47.0231V55.7772H45.6257V46.2789H50.1093C52.1045 46.2789 53.4458 47.5594 53.4458 49.4647C53.4458 50.7478 52.5976 51.8406 51.287 52.2494L51.0085 52.3368L53.4075 55.7798H51.6345V55.7772ZM47.0206 51.3366H49.9662C51.5016 51.3366 52.0458 50.3287 52.0458 49.4621C52.0458 48.5982 51.5016 47.5877 49.9662 47.5877H47.0206V51.3366Z" fill="#153A5B"/>
    <path d="M34.9954 55.7772L37.9308 48.5185L40.8407 55.7772H42.3991L38.6922 46.9706C38.5159 46.5514 38.1071 46.2763 37.6524 46.2763H34.6684V46.5232C34.6684 47.0606 35.1002 47.4951 35.6341 47.4951H37.0418L33.4447 55.7772H34.9954Z" fill="#153A5B"/>
    <path d="M6.48016 55.7813H5.69189V48.6917H6.48016V51.6284C6.68845 51.3945 6.9528 51.1958 7.27324 51.0324C7.58726 50.8658 7.93333 50.7825 8.31145 50.7825C8.64149 50.7825 8.95552 50.845 9.25352 50.9699C9.55473 51.0949 9.81749 51.2711 10.0418 51.4987C10.2661 51.723 10.4423 51.9969 10.5705 52.3206C10.6987 52.641 10.7628 52.9839 10.7628 53.3492C10.7628 53.8458 10.6506 54.2896 10.4263 54.6806C10.2052 55.0747 9.90401 55.3807 9.52269 55.5986C9.14458 55.8133 8.72481 55.9207 8.26338 55.9207C7.9045 55.9207 7.57124 55.8486 7.26363 55.7044C6.95921 55.5602 6.69806 55.3663 6.48016 55.1228V55.7813ZM6.91756 52.0274C6.59392 52.3895 6.4321 52.8301 6.4321 53.3492C6.4321 53.8683 6.59392 54.3089 6.91756 54.671C7.2444 55.0298 7.67218 55.2093 8.2009 55.2093C8.72961 55.2093 9.15739 55.0298 9.48424 54.671C9.81108 54.3089 9.9745 53.8683 9.9745 53.3492C9.9745 52.8301 9.81108 52.3895 9.48424 52.0274C9.15739 51.6685 8.72961 51.489 8.2009 51.489C7.67218 51.489 7.2444 51.6685 6.91756 52.0274Z" fill="#153A5B"/>
    <path d="M13.1464 54.9065L11.2046 50.9171H12.089L13.5598 54.0413L15.0642 50.9171H15.8621L12.4351 58.0067H11.6468L13.1464 54.9065Z" fill="#153A5B"/>
</svg>
